HIERARCHY
ROOT Hips
{
  OFFSET 0.0000 0.0000 0.0000
  CHANNELS 6 Xposition Yposition Zposition Zrotation Xrotation Yrotation
  JOINT Chest
  {
    OFFSET -0.1728 10.2870 0.1254
    CHANNELS 3 Zrotation Xrotation Yrotation
    JOINT Chest2
    {
      OFFSET 0.3229 15.8173 -2.6440
      CHANNELS 3 Zrotation Xrotation Yrotation
      JOINT LeftCollar
      {
        OFFSET -0.0683 16.8828 0.2989
        CHANNELS 3 Zrotation Xrotation Yrotation
        JOINT LeftShoulder
        {
          OFFSET 16.0110 -3.0750 2.0528
          CHANNELS 3 Zrotation Xrotation Yrotation
          JOINT LeftElbow
          {
            OFFSET 2.6153 -25.4187 1.7231
            CHANNELS 3 Zrotation Xrotation Yrotation
            JOINT LeftWrist
            {
              OFFSET 2.3595 -22.4741 1.0488
              CHANNELS 3 Zrotation Xrotation Yrotation
              End Site
              {
                  OFFSET 1.4871 -13.9919 1.1523
              }
            }
          }
        }
      }
      JOINT RightCollar
      {
        OFFSET -0.0683 16.8828 0.2989
        CHANNELS 3 Zrotation Xrotation Yrotation
        JOINT RightShoulder
        {
          OFFSET -16.3743 -2.4390 2.0841
          CHANNELS 3 Zrotation Xrotation Yrotation
          JOINT RightElbow
          {
            OFFSET -2.6865 -25.0857 1.2959
            CHANNELS 3 Zrotation Xrotation Yrotation
            JOINT RightWrist
            {
              OFFSET -2.3810 -22.8348 1.0329
              CHANNELS 3 Zrotation Xrotation Yrotation
              End Site
              {
                  OFFSET -1.4652 -14.7234 1.0705
              }
            }
          }
        }
      }
      JOINT Neck
      {
        OFFSET -0.0683 16.8828 0.2989
        CHANNELS 3 Zrotation Xrotation Yrotation
        JOINT Head
        {
          OFFSET 0.1300 11.4121 4.7143
          CHANNELS 3 Zrotation Xrotation Yrotation
          End Site
          {
              OFFSET 0.0452 18.0438 0.3379
          }
        }
      }
    }
  }
  JOINT LeftHip
  {
    OFFSET 9.3186 -0.0408 3.5432
    CHANNELS 3 Zrotation Xrotation Yrotation
    JOINT LeftKnee
    {
      OFFSET -0.5435 -48.8357 0.3144
      CHANNELS 3 Zrotation Xrotation Yrotation
      JOINT LeftAnkle
      {
        OFFSET 0.2027 -38.4920 -4.2946
        CHANNELS 3 Zrotation Xrotation Yrotation
        End Site
        {
            OFFSET 1.1879 -7.4484 17.8063
        }
      }
    }
  }
  JOINT RightHip
  {
    OFFSET -10.0712 -0.0749 3.1483
    CHANNELS 3 Zrotation Xrotation Yrotation
    JOINT RightKnee
    {
      OFFSET 0.3157 -48.5179 0.1055
      CHANNELS 3 Zrotation Xrotation Yrotation
      JOINT RightAnkle
      {
        OFFSET -1.1248 -38.4399 -3.4305
        CHANNELS 3 Zrotation Xrotation Yrotation
        End Site
        {
            OFFSET -1.3336 -7.3741 17.3830
        }
      }
    }
  }
}
MOTION
Frames:	11
Frame Time:	0.041667
97.4798 96.6752 -181.1993 -0.48 -12.70 1.05 -0.34 16.16 -1.14 -0.31 16.13 -1.12 -0.18 -0.70 0.26 23.87 -16.98 -68.23 9.18 -26.43 -2.45 -11.52 7.01 6.77 -0.01 -0.80 0.01 -23.42 -20.28 102.81 -13.89 -14.40 3.32 6.82 18.08 -54.57 1.55 -14.10 -4.75 2.32 -6.82 -4.62 0.67 13.93 -2.76 0.20 -1.17 -0.04 1.22 -0.81 0.63 -0.80 13.57 -4.25 0.12 -0.33 0.02 0.07 0.11 7.83 
97.4399 96.7052 -181.2020 -0.60 -12.49 0.97 -0.45 16.08 -1.14 -0.42 16.05 -1.12 -0.18 -0.70 0.26 24.04 -16.91 -67.79 9.19 -26.38 -2.45 -11.67 6.99 5.67 -0.01 -0.80 0.01 -23.12 -20.34 102.41 -13.87 -14.73 3.32 6.23 17.76 -52.76 1.71 -14.19 -4.88 2.50 -6.90 -4.75 0.79 13.72 -2.67 0.20 -1.18 -0.06 1.19 -0.80 0.67 -0.68 13.31 -4.22 0.12 -0.29 0.02 0.07 0.03 7.85 
97.3925 96.7353 -181.2267 -0.66 -12.28 0.99 -0.62 16.03 -1.11 -0.59 16.00 -1.09 -0.18 -0.70 0.26 24.31 -16.89 -67.34 9.18 -26.42 -2.45 -11.78 7.20 5.01 -0.01 -0.80 0.01 -22.85 -20.39 102.24 -13.87 -14.82 3.32 5.66 16.56 -52.46 1.93 -14.31 -5.05 2.74 -7.02 -4.92 0.89 13.50 -2.72 0.20 -1.20 -0.06 1.16 -0.73 0.71 -0.59 13.06 -4.13 0.12 -0.28 0.02 0.07 0.01 7.78 
97.3576 96.7584 -181.2486 -0.70 -12.11 1.02 -0.80 16.02 -1.06 -0.78 15.98 -1.04 -0.18 -0.70 0.26 24.60 -16.97 -67.05 9.18 -26.41 -2.45 -11.89 7.39 4.42 -0.01 -0.80 0.01 -22.63 -20.43 101.98 -13.86 -14.97 3.32 5.15 15.60 -52.99 2.16 -14.44 -5.23 2.99 -7.16 -5.09 0.96 13.30 -2.81 0.20 -1.25 -0.07 1.14 -0.67 0.76 -0.52 12.87 -4.12 0.12 -0.27 0.02 0.07 0.01 7.73 
97.3324 96.7691 -181.2548 -0.74 -12.00 1.02 -0.98 16.04 -0.98 -0.95 16.01 -0.96 -0.18 -0.70 0.26 24.84 -17.14 -66.95 9.19 -26.31 -2.44 -11.98 7.51 3.81 -0.01 -0.80 0.01 -22.47 -20.45 101.60 -13.85 -15.16 3.33 4.78 15.27 -54.04 2.34 -14.59 -5.40 3.19 -7.31 -5.26 1.00 13.20 -2.78 0.20 -1.29 -0.07 1.12 -0.67 0.68 -0.48 12.79 -4.19 0.12 -0.24 0.02 0.07 0.06 7.76 
97.3001 96.7691 -181.2494 -0.78 -11.96 0.95 -1.15 16.09 -0.87 -1.12 16.06 -0.85 -0.18 -0.70 0.26 25.05 -17.32 -66.91 9.19 -26.17 -2.44 -12.01 7.56 3.34 -0.01 -0.80 0.01 -22.38 -20.50 101.19 -13.84 -15.37 3.33 4.57 15.49 -55.44 2.48 -14.75 -5.57 3.35 -7.48 -5.42 1.07 13.17 -2.40 0.20 -1.27 -0.07 1.07 -0.75 0.35 -0.45 12.77 -4.26 0.12 -0.24 0.02 0.07 0.12 7.85 
97.2549 96.7664 -181.2440 -0.83 -11.96 0.84 -1.29 16.17 -0.75 -1.26 16.14 -0.73 -0.18 -0.70 0.26 25.22 -17.48 -66.95 9.20 -26.02 -2.43 -11.94 7.55 3.22 -0.01 -0.80 0.01 -22.32 -20.65 101.12 -13.84 -15.38 3.33 4.59 15.97 -57.05 2.56 -14.93 -5.75 3.45 -7.66 -5.59 1.16 13.19 -1.78 0.20 -1.20 -0.06 1.00 -0.83 -0.13 -0.40 12.78 -4.26 0.12 -0.26 0.02 0.07 0.17 7.91 
97.2137 96.7685 -181.2429 -0.87 -11.96 0.71 -1.41 16.24 -0.65 -1.38 16.21 -0.63 -0.18 -0.70 0.26 25.34 -17.59 -67.17 9.20 -25.91 -2.43 -11.78 7.61 3.48 -0.01 -0.80 0.01 -22.31 -20.86 101.41 -13.85 -15.25 3.33 4.75 16.39 -58.57 2.61 -15.12 -6.03 3.54 -7.84 -5.86 1.23 13.22 -1.33 0.19 -1.22 -0.07 0.95 -0.86 -0.43 -0.36 12.78 -4.09 0.12 -0.34 0.02 0.07 0.22 7.90 
97.2000 96.7763 -181.2423 -0.90 -11.95 0.61 -1.51 16.28 -0.58 -1.48 16.25 -0.56 -0.18 -0.70 0.26 25.43 -17.64 -67.47 9.20 -26.03 -2.43 -11.57 8.00 3.92 -0.01 -0.80 0.01 -22.31 -21.08 101.81 -13.85 -15.16 3.33 4.91 16.45 -59.84 2.70 -15.29 -6.66 3.70 -8.03 -6.48 1.24 13.27 -1.40 0.19 -1.34 -0.07 0.95 -0.77 -0.29 -0.34 12.77 -3.85 0.12 -0.40 0.02 0.07 0.29 7.82 
97.2235 96.7832 -181.2425 -0.90 -11.89 0.52 -1.60 16.29 -0.55 -1.57 16.26 -0.53 -0.18 -0.70 0.26 25.48 -17.63 -67.72 9.19 -26.25 -2.44 -11.42 8.54 4.37 -0.01 -0.80 0.01 -22.31 -21.28 102.16 -13.86 -15.11 3.32 4.96 16.14 -60.96 2.88 -15.46 -7.86 4.03 -8.21 -7.64 1.19 13.27 -1.86 0.19 -1.47 -0.07 1.00 -0.68 0.20 -0.36 12.75 -3.59 0.12 -0.46 0.02 0.07 0.34 7.68 
97.2821 96.7810 -181.2516 -0.89 -11.81 0.42 -1.69 16.27 -0.56 -1.66 16.24 -0.54 -0.18 -0.70 0.26 25.49 -17.52 -67.66 9.18 -26.46 -2.45 -11.45 8.80 4.82 -0.01 -0.80 0.01 -22.31 -21.48 102.30 -13.85 -15.28 3.33 4.85 15.85 -61.87 3.18 -15.62 -9.78 4.57 -8.41 -9.52 1.10 13.20 -2.24 0.19 -1.46 -0.07 1.07 -0.68 0.66 -0.41 12.69 -3.26 0.12 -0.51 0.03 0.07 0.36 7.49 
